<?xml version="1.0" encoding="UTF-8"?>
<!DOCTYPE svg PUBLIC "-//W3C//DTD SVG 1.1//EN" "http://www.w3.org/Graphics/SVG/1.1/DTD/svg11.dtd">
<svg xmlns="http://www.w3.org/2000/svg" version="1.1" width="3000px" height="1688px" style="shape-rendering:geometricPrecision; text-rendering:geometricPrecision; image-rendering:optimizeQuality; fill-rule:evenodd; clip-rule:evenodd" xmlns:xlink="http://www.w3.org/1999/xlink">
<g><path style="opacity:0.993" fill="#FFF" d="M 410.5,430.5 C 472.56,428.667 534.56,436 596.5,452.5C 586.133,521.702 574.8,590.702 562.5,659.5C 542.785,642.968 521.118,629.468 497.5,619C 430.646,594.52 369.313,604.186 313.5,648C 293.344,665.147 280.511,686.647 275,712.5C 270.959,750.452 285.459,778.952 318.5,798C 350.684,814.058 384.35,819.391 419.5,814C 463.777,807.686 504.11,791.686 540.5,766C 541.332,765.312 541.998,765.479 542.5,766.5C 526.672,833.813 510.839,901.147 495,968.5C 483.858,972.798 472.358,975.965 460.5,978C 398.761,988.562 337.261,992.395 276,989.5C 217.329,984.717 163.496,966.217 114.5,934C 45.8032,884.569 15.3032,817.735 23,733.5C 30.0026,684.851 48.0026,640.851 77,601.5C 128.887,535.097 194.72,487.597 274.5,459C 318.694,443.396 364.028,433.896 410.5,430.5 Z"/></g>
<g><path style="opacity:0.993" fill="#FFF" d="M 860.5,535.5 C 907.929,532.602 954.929,537.769 1001.5,551C 1042.88,563.591 1078.38,585.424 1108,616.5C 1132.07,644.668 1145.74,677.334 1149,714.5C 1153.28,679.286 1167.28,648.619 1191,622.5C 1222.24,590.946 1259.08,568.113 1301.5,554C 1360.89,534.691 1421.23,530.024 1482.5,540C 1517.37,545.68 1550.37,556.846 1581.5,573.5C 1582.58,574.365 1582.75,575.365 1582,576.5C 1557.24,614.368 1532.24,652.035 1507,689.5C 1487.15,677.31 1466.32,668.143 1444.5,662C 1421.27,655.747 1397.94,655.081 1374.5,660C 1363.35,662.56 1356.01,669.227 1352.5,680C 1352.66,687.234 1356.32,692.234 1363.5,695C 1390.37,701.201 1417.37,706.868 1444.5,712C 1473.3,717.742 1499.3,729.408 1522.5,747C 1542.39,764.621 1552.73,786.788 1553.5,813.5C 1550.76,858.151 1533.09,895.651 1500.5,926C 1466.46,955.191 1427.46,975.191 1383.5,986C 1328.75,999.607 1273.59,1002.11 1218,993.5C 1178.94,989.079 1140.77,979.912 1103.5,966C 1096.51,963.293 1089.84,960.127 1083.5,956.5C 1111.38,914.581 1139.38,872.747 1167.5,831C 1168.5,830.333 1169.5,830.333 1170.5,831C 1202.69,857.34 1239.52,872.84 1281,877.5C 1296.77,878.262 1312.27,876.096 1327.5,871C 1337.39,867.772 1343.89,861.272 1347,851.5C 1348.13,841.273 1343.63,834.773 1333.5,832C 1303.9,826.345 1274.24,821.011 1244.5,816C 1219.13,810.312 1196.46,799.312 1176.5,783C 1162.15,770.298 1153.32,754.465 1150,735.5C 1143.35,810.317 1110.85,871.15 1052.5,918C 992.79,962.808 925.456,988.808 850.5,996C 790.903,1002.95 732.57,997.279 675.5,979C 639.538,966.608 608.371,946.775 582,919.5C 546.557,877.017 533.89,828.35 544,773.5C 554.804,717.041 581.304,669.541 623.5,631C 683.611,579.367 753.111,548.867 832,539.5C 841.555,537.83 851.055,536.497 860.5,535.5 Z M 851.5,683.5 C 872.009,682.473 891.675,685.973 910.5,694C 932.571,706.121 944.905,724.787 947.5,750C 945.797,795.953 922.797,828.286 878.5,847C 852.717,855.914 826.384,857.914 799.5,853C 751.204,838.927 733.704,807.427 747,758.5C 759.631,725.203 782.798,702.703 816.5,691C 828.071,687.411 839.738,684.911 851.5,683.5 Z"/></g>
<g><path style="opacity:0.992" fill="#FFF" d="M 2238.5,535.5 C 2290.04,532.851 2341.38,538.684 2392.5,553C 2393.43,553.388 2394.09,554.055 2394.5,555C 2385.5,611.858 2376.33,668.692 2367,725.5C 2316.78,678.823 2259.94,668.656 2196.5,695C 2170.47,708.03 2151.64,727.863 2140,754.5C 2128.6,798.195 2143.76,828.695 2185.5,846C 2213.51,854.869 2241.85,855.869 2270.5,849C 2299.16,841.667 2325.49,829.5 2349.5,812.5C 2349.83,813 2350.17,813.5 2350.5,814C 2337.92,869.139 2325.42,924.306 2313,979.5C 2308.52,982.107 2303.68,983.941 2298.5,985C 2236.47,998.45 2174.47,1001.45 2112.5,994C 2066.4,986.609 2025.73,967.942 1990.5,938C 1940.26,889.287 1922.76,830.787 1938,762.5C 1948.65,719.931 1968.65,682.598 1998,650.5C 2063.64,582.269 2143.8,543.936 2238.5,535.5 Z"/></g>
<g><path style="opacity:0.994" fill="#FFF" d="M 2679.5,535.5 C 2725.86,532.584 2771.86,537.417 2817.5,550C 2861.09,562.636 2898.26,585.469 2929,618.5C 2965.48,664.948 2977.15,716.615 2964,773.5C 2951.9,824.221 2927.07,867.387 2889.5,903C 2837.91,948.01 2778.24,977.01 2710.5,990C 2641.91,1003.27 2573.91,1000.93 2506.5,983C 2461.55,969.969 2424.05,945.802 2394,910.5C 2363.74,867.994 2353.74,820.994 2364,769.5C 2374.41,717.675 2398.58,673.675 2436.5,637.5C 2478.04,598.379 2526.38,570.546 2581.5,554C 2613.67,544.474 2646.34,538.307 2679.5,535.5 Z M 2671.5,683.5 C 2696.08,681.711 2718.75,687.211 2739.5,700C 2762.17,718.203 2770.67,741.703 2765,770.5C 2756.08,806.418 2734.58,831.585 2700.5,846C 2670.27,857.058 2639.6,858.391 2608.5,850C 2571.02,834.892 2556.19,807.392 2564,767.5C 2576.13,727.368 2602.3,701.202 2642.5,689C 2652.19,686.55 2661.86,684.717 2671.5,683.5 Z"/></g>
<g><path style="opacity:0.992" fill="#FFF" d="M 1595.5,542.5 C 1733.83,542.5 1872.17,542.5 2010.5,542.5C 1996.76,591.871 1981.93,640.871 1966,689.5C 1931.73,687.749 1897.73,686.082 1864,684.5C 1862.6,685.051 1861.27,685.384 1860,685.5C 1829.24,787.385 1798.41,889.218 1767.5,991C 1764.91,991.226 1762.41,991.726 1760,992.5C 1698.67,992.5 1637.33,992.5 1576,992.5C 1573.93,991.736 1571.76,991.236 1569.5,991C 1600.83,889.022 1631.33,786.856 1661,684.5C 1625.13,686.032 1589.3,687.699 1553.5,689.5C 1553.17,688.833 1552.83,688.167 1552.5,687.5C 1567.05,639.197 1581.38,590.864 1595.5,542.5 Z"/></g>
<g><path style="opacity:0.983" fill="#FFF" d="M 1643.5,1046.5 C 1669.21,1044.73 1694.55,1048.56 1719.5,1058C 1753.25,1072.41 1771.42,1097.91 1774,1134.5C 1779.17,1106.16 1784.34,1077.82 1789.5,1049.5C 1818.83,1049.5 1848.17,1049.5 1877.5,1049.5C 1869.06,1095.15 1860.72,1140.82 1852.5,1186.5C 1876.5,1186.5 1900.5,1186.5 1924.5,1186.5C 1921.01,1208.26 1917.01,1229.93 1912.5,1251.5C 1858.83,1252.83 1805.17,1252.83 1751.5,1251.5C 1756.92,1224.89 1761.76,1198.22 1766,1171.5C 1754.14,1199.03 1734.97,1219.86 1708.5,1234C 1661.66,1257.4 1613.66,1261.73 1564.5,1247C 1536.11,1237.94 1516.94,1219.44 1507,1191.5C 1505.23,1184.27 1504.23,1176.94 1504,1169.5C 1498.83,1197.18 1493.66,1224.85 1488.5,1252.5C 1460.17,1252.5 1431.83,1252.5 1403.5,1252.5C 1407.83,1229.16 1412.17,1205.83 1416.5,1182.5C 1399.17,1182.5 1381.83,1182.5 1364.5,1182.5C 1359.95,1205.8 1355.62,1229.13 1351.5,1252.5C 1323.17,1252.5 1294.83,1252.5 1266.5,1252.5C 1278,1191.51 1289.17,1130.51 1300,1069.5C 1263.31,1130.38 1226.47,1191.22 1189.5,1252C 1163.84,1252.5 1138.17,1252.67 1112.5,1252.5C 1110.25,1215.85 1108.25,1179.18 1106.5,1142.5C 1105.5,1142.5 1104.5,1142.5 1103.5,1142.5C 1101.36,1154.7 1097.53,1166.37 1092,1177.5C 1079.61,1202.44 1067.11,1227.28 1054.5,1252C 1029.5,1252.5 1004.5,1252.67 979.5,1252.5C 964.321,1184.57 949.321,1116.91 934.5,1049.5C 964.833,1049.5 995.167,1049.5 1025.5,1049.5C 1027.81,1089.84 1030.31,1130.17 1033,1170.5C 1036.65,1160.88 1040.32,1151.21 1044,1141.5C 1058.72,1110.89 1073.89,1080.39 1089.5,1050C 1111.83,1049.5 1134.16,1049.33 1156.5,1049.5C 1159.81,1089.53 1163.47,1129.53 1167.5,1169.5C 1171.17,1157.98 1175.34,1146.65 1180,1135.5C 1193.52,1107.14 1207.02,1078.8 1220.5,1050.5C 1276.83,1049.5 1333.16,1049.17 1389.5,1049.5C 1385.3,1071.85 1380.96,1094.19 1376.5,1116.5C 1394.06,1117.82 1411.56,1117.82 1429,1116.5C 1433.23,1094.16 1437.4,1071.83 1441.5,1049.5C 1469.74,1049.17 1497.91,1049.5 1526,1050.5C 1520.95,1077.41 1516.29,1104.41 1512,1131.5C 1523.09,1105.41 1540.92,1085.24 1565.5,1071C 1589.92,1057.47 1615.92,1049.3 1643.5,1046.5 Z M 1642.5,1113.5 C 1657.01,1112.29 1669.18,1117.29 1679,1128.5C 1687.69,1154.31 1679.85,1173.47 1655.5,1186C 1642.8,1190.69 1629.8,1191.69 1616.5,1189C 1596.69,1181.21 1589.85,1167.04 1596,1146.5C 1605.01,1126.32 1620.51,1115.32 1642.5,1113.5 Z"/></g>
<g><path style="opacity:0.982" fill="#FFF" d="M 2227.5,1046.5 C 2249.53,1045.34 2271.53,1048.17 2293.5,1055C 2300.45,1057.81 2307.11,1061.14 2313.5,1065C 2302.33,1082.33 2291,1099.49 2279.5,1116.5C 2265.49,1107.5 2250.16,1102.5 2233.5,1101.5C 2226.27,1101.31 2219.77,1103.31 2214,1107.5C 2210.65,1111.61 2211.15,1115.11 2215.5,1118C 2231.22,1121.41 2246.88,1125.08 2262.5,1129C 2292.13,1137.77 2304.29,1157.27 2299,1187.5C 2326.5,1141.83 2354,1096.17 2381.5,1050.5C 2413.83,1049.17 2446.17,1049.17 2478.5,1050.5C 2492.83,1110.5 2507.17,1170.5 2521.5,1230.5C 2533.11,1170.51 2544.45,1110.18 2555.5,1049.5C 2584.83,1049.5 2614.17,1049.5 2643.5,1049.5C 2635.3,1095.19 2626.96,1140.86 2618.5,1186.5C 2642.5,1186.5 2666.5,1186.5 2690.5,1186.5C 2687.25,1208.3 2683.25,1229.97 2678.5,1251.5C 2596.84,1252.67 2515.17,1252.83 2433.5,1252C 2431.89,1243.95 2430.89,1235.78 2430.5,1227.5C 2408.49,1227.17 2386.49,1227.5 2364.5,1228.5C 2361.03,1236.22 2357.37,1243.88 2353.5,1251.5C 2322.5,1252.83 2291.5,1252.83 2260.5,1251.5C 2266.59,1241.98 2272.09,1232.31 2277,1222.5C 2260.68,1236.73 2241.84,1246.23 2220.5,1251C 2178.16,1259.38 2136.5,1255.21 2095.5,1238.5C 2094.1,1243 2092.77,1247.5 2091.5,1252C 2037.17,1252.67 1982.83,1252.67 1928.5,1252C 1940.18,1184.92 1952.68,1117.75 1966,1050.5C 2019.76,1049.5 2073.6,1049.17 2127.5,1049.5C 2124.3,1068.19 2120.96,1086.86 2117.5,1105.5C 2092.93,1105.17 2068.43,1105.51 2044,1106.5C 2043.06,1111.89 2041.9,1117.23 2040.5,1122.5C 2041.99,1123.24 2043.49,1123.91 2045,1124.5C 2065.8,1124.63 2086.63,1124.3 2107.5,1123.5C 2104.3,1141.52 2100.96,1159.52 2097.5,1177.5C 2075.17,1177.5 2052.83,1177.5 2030.5,1177.5C 2029.54,1183.77 2028.21,1189.94 2026.5,1196C 2051.83,1196.5 2077.16,1196.67 2102.5,1196.5C 2100.54,1206.81 2099.04,1217.14 2098,1227.5C 2108.6,1211.29 2119.43,1195.29 2130.5,1179.5C 2147.8,1194.21 2167.8,1201.04 2190.5,1200C 2196.94,1199.42 2202.44,1196.92 2207,1192.5C 2209.53,1187.86 2208.7,1184.03 2204.5,1181C 2189.13,1178.16 2173.8,1175.16 2158.5,1172C 2121.29,1158.69 2111.79,1134.53 2130,1099.5C 2147.61,1073.94 2171.78,1057.78 2202.5,1051C 2210.94,1049.26 2219.27,1047.76 2227.5,1046.5 Z M 2421.5,1117.5 C 2423.17,1120.95 2424.17,1124.79 2424.5,1129C 2424.17,1130 2423.83,1131 2423.5,1132C 2424.87,1147.36 2426.53,1162.7 2428.5,1178C 2417.17,1178.67 2405.83,1178.67 2394.5,1178C 2403.92,1158 2412.92,1137.84 2421.5,1117.5 Z"/></g>
<g><path style="opacity:0.982" fill="#FFF" d="M 2732.5,1049.5 C 2786.17,1049.5 2839.83,1049.5 2893.5,1049.5C 2890.38,1068.21 2887.05,1086.87 2883.5,1105.5C 2858.93,1105.17 2834.43,1105.51 2810,1106.5C 2808.96,1112.03 2807.79,1117.53 2806.5,1123C 2806.83,1123.5 2807.17,1124 2807.5,1124.5C 2829.42,1123.77 2851.42,1123.44 2873.5,1123.5C 2870.29,1141.53 2866.96,1159.53 2863.5,1177.5C 2841.17,1177.5 2818.83,1177.5 2796.5,1177.5C 2795.74,1183.81 2794.4,1189.98 2792.5,1196C 2817.83,1196.5 2843.16,1196.67 2868.5,1196.5C 2865.17,1215.17 2861.83,1233.83 2858.5,1252.5C 2803.36,1253 2748.36,1252.5 2693.5,1251C 2706.55,1183.84 2719.55,1116.67 2732.5,1049.5 Z"/></g>
<g><path style="opacity:0.992" fill="#FFF" d="M 39.5,1050.5 C 331.5,1050.33 623.5,1050.5 915.5,1051C 919.96,1068.97 924.293,1086.97 928.5,1105C 632.167,1105.5 335.834,1105.67 39.5,1105.5C 39.5,1087.17 39.5,1068.83 39.5,1050.5 Z"/></g>
<g><path style="opacity:0.973" fill="#FFF" d="M 39.5,1126.5 C 337.167,1126.33 634.834,1126.5 932.5,1127C 936.991,1144.3 941.325,1161.63 945.5,1179C 643.5,1179.5 341.5,1179.67 39.5,1179.5C 39.5,1161.83 39.5,1144.17 39.5,1126.5 Z"/></g>
<g><path style="opacity:0.977" fill="#FFF" d="M 40.5,1199.5 C 343.53,1199.96 646.363,1199.96 949,1199.5C 953.625,1216.96 958.125,1234.46 962.5,1252C 654.834,1252.5 347.167,1252.67 39.5,1252.5C 39.181,1234.76 39.5143,1217.09 40.5,1199.5 Z"/></g>
</svg>
